<svg xmlns="http://www.w3.org/2000/svg" viewBox="0 0 32 32">
  <rect width="32" height="32" fill="#000"/>
  <!-- Main stem -->
  <path d="M16 30 Q15.5 24 15 18 Q15 12 16 4" stroke="#C9A96E" stroke-width="1.2" fill="none" stroke-linecap="round"/>
  <!-- Left fronds - bottom to top, getting smaller -->
  <path d="M15.2 26 Q11 25 9 22" stroke="#C9A96E" stroke-width="1" fill="none" stroke-linecap="round"/>
  <path d="M15 23 Q11 21 9 18" stroke="#C9A96E" stroke-width="1" fill="none" stroke-linecap="round"/>
  <path d="M15.2 20 Q12 18 10 15" stroke="#C9A96E" stroke-width="1" fill="none" stroke-linecap="round"/>
  <path d="M15.3 17 Q12.5 15 11 12" stroke="#C9A96E" stroke-width="0.9" fill="none" stroke-linecap="round"/>
  <path d="M15.5 14 Q13 12 12 9" stroke="#C9A96E" stroke-width="0.8" fill="none" stroke-linecap="round"/>
  <path d="M15.7 11 Q14 9 13.5 7" stroke="#C9A96E" stroke-width="0.7" fill="none" stroke-linecap="round"/>
  <!-- Right fronds - bottom to top, getting smaller -->
  <path d="M15.4 25 Q19 24 21 21" stroke="#C9A96E" stroke-width="1" fill="none" stroke-linecap="round"/>
  <path d="M15.3 22 Q19 20 21 17" stroke="#C9A96E" stroke-width="1" fill="none" stroke-linecap="round"/>
  <path d="M15.4 19 Q18 17 20 14" stroke="#C9A96E" stroke-width="0.9" fill="none" stroke-linecap="round"/>
  <path d="M15.5 16 Q18 14 19 11" stroke="#C9A96E" stroke-width="0.8" fill="none" stroke-linecap="round"/>
  <path d="M15.6 13 Q18 11 18.5 8" stroke="#C9A96E" stroke-width="0.7" fill="none" stroke-linecap="round"/>
  <path d="M15.8 10 Q17.5 8 17.5 6" stroke="#C9A96E" stroke-width="0.6" fill="none" stroke-linecap="round"/>
</svg>
